<svg id="visual" viewBox="0 0 1900 1900" width="1900" height="1900" xmlns="http://www.w3.org/2000/svg" xmlns:xlink="http://www.w3.org/1999/xlink" version="1.1"><g stroke-width="1" stroke-linejoin="bevel"><path d="M838.4 1024.6L1035.6 1077.6L1015.6 819.4Z" fill="#ffffff" stroke="#ffffff"></path><path d="M1015.6 819.4L840.4 807.4L838.4 1024.6Z" fill="#eaeaea" stroke="#eaeaea"></path><path d="M1035.6 1077.6L1248.7 1032.6L1015.6 819.4Z" fill="#d6d6d6" stroke="#d6d6d6"></path><path d="M1257.7 818.4L1032.6 664.3L1015.6 819.4Z" fill="#e0e0e0" stroke="#e0e0e0"></path><path d="M1015.6 819.4L1032.6 664.3L840.4 807.4Z" fill="#d1d1d1" stroke="#d1d1d1"></path><path d="M1248.7 1032.6L1257.7 818.4L1015.6 819.4Z" fill="#ffffff" stroke="#ffffff"></path><path d="M1032.6 664.3L843.4 640.3L840.4 807.4Z" fill="#dbdbdb" stroke="#dbdbdb"></path><path d="M848.4 1303.7L1053.6 1295.7L1035.6 1077.6Z" fill="#d6d6d6" stroke="#d6d6d6"></path><path d="M1035.6 1077.6L1252.7 1270.7L1248.7 1032.6Z" fill="#f5f5f5" stroke="#f5f5f5"></path><path d="M600.3 849.4L610.3 1030.6L838.4 1024.6Z" fill="#fafafa" stroke="#fafafa"></path><path d="M838.4 1024.6L848.4 1303.7L1035.6 1077.6Z" fill="#e5e5e5" stroke="#e5e5e5"></path><path d="M600.3 849.4L838.4 1024.6L840.4 807.4Z" fill="#efefef" stroke="#efefef"></path><path d="M594.3 1269.7L848.4 1303.7L838.4 1024.6Z" fill="#cccccc" stroke="#cccccc"></path><path d="M622.3 615.3L600.3 849.4L840.4 807.4Z" fill="#d6d6d6" stroke="#d6d6d6"></path><path d="M1491.8 846.4L1286.7 672.3L1257.7 818.4Z" fill="#cccccc" stroke="#cccccc"></path><path d="M1257.7 818.4L1286.7 672.3L1032.6 664.3Z" fill="#eaeaea" stroke="#eaeaea"></path><path d="M1021.6 396.2L810.4 418.2L843.4 640.3Z" fill="#fafafa" stroke="#fafafa"></path><path d="M1053.6 1295.7L1252.7 1270.7L1035.6 1077.6Z" fill="#e0e0e0" stroke="#e0e0e0"></path><path d="M1248.7 1032.6L1438.8 1019.6L1257.7 818.4Z" fill="#f5f5f5" stroke="#f5f5f5"></path><path d="M810.4 418.2L622.3 615.3L843.4 640.3Z" fill="#e0e0e0" stroke="#e0e0e0"></path><path d="M843.4 640.3L622.3 615.3L840.4 807.4Z" fill="#e0e0e0" stroke="#e0e0e0"></path><path d="M1252.7 1270.7L1438.8 1019.6L1248.7 1032.6Z" fill="#d6d6d6" stroke="#d6d6d6"></path><path d="M610.3 1030.6L594.3 1269.7L838.4 1024.6Z" fill="#efefef" stroke="#efefef"></path><path d="M458.2 1070.6L594.3 1269.7L610.3 1030.6Z" fill="#fafafa" stroke="#fafafa"></path><path d="M833.4 1469.8L1031.6 1441.8L848.4 1303.7Z" fill="#cccccc" stroke="#cccccc"></path><path d="M848.4 1303.7L1031.6 1441.8L1053.6 1295.7Z" fill="#f5f5f5" stroke="#f5f5f5"></path><path d="M1053.6 1295.7L1276.7 1476.8L1252.7 1270.7Z" fill="#ffffff" stroke="#ffffff"></path><path d="M441.2 835.4L610.3 1030.6L600.3 849.4Z" fill="#cccccc" stroke="#cccccc"></path><path d="M441.2 835.4L458.2 1070.6L610.3 1030.6Z" fill="#d6d6d6" stroke="#d6d6d6"></path><path d="M632.3 1460.8L833.4 1469.8L848.4 1303.7Z" fill="#d6d6d6" stroke="#d6d6d6"></path><path d="M429.2 660.3L441.2 835.4L600.3 849.4Z" fill="#e5e5e5" stroke="#e5e5e5"></path><path d="M1438.8 1019.6L1491.8 846.4L1257.7 818.4Z" fill="#d6d6d6" stroke="#d6d6d6"></path><path d="M1021.6 396.2L843.4 640.3L1032.6 664.3Z" fill="#eaeaea" stroke="#eaeaea"></path><path d="M1305.7 423.2L1032.6 664.3L1286.7 672.3Z" fill="#d6d6d6" stroke="#d6d6d6"></path><path d="M1305.7 423.2L1021.6 396.2L1032.6 664.3Z" fill="#cccccc" stroke="#cccccc"></path><path d="M445.2 1453.8L632.3 1460.8L594.3 1269.7Z" fill="#e5e5e5" stroke="#e5e5e5"></path><path d="M594.3 1269.7L632.3 1460.8L848.4 1303.7Z" fill="#e0e0e0" stroke="#e0e0e0"></path><path d="M622.3 615.3L429.2 660.3L600.3 849.4Z" fill="#d6d6d6" stroke="#d6d6d6"></path><path d="M425.2 432.2L429.2 660.3L622.3 615.3Z" fill="#e0e0e0" stroke="#e0e0e0"></path><path d="M1031.6 1441.8L1276.7 1476.8L1053.6 1295.7Z" fill="#ffffff" stroke="#ffffff"></path><path d="M1252.7 1270.7L1508.8 1235.7L1438.8 1019.6Z" fill="#f5f5f5" stroke="#f5f5f5"></path><path d="M1056.6 1662.9L1276.7 1476.8L1031.6 1441.8Z" fill="#ffffff" stroke="#ffffff"></path><path d="M816.4 250.1L644.3 431.2L810.4 418.2Z" fill="#cccccc" stroke="#cccccc"></path><path d="M810.4 418.2L644.3 431.2L622.3 615.3Z" fill="#ffffff" stroke="#ffffff"></path><path d="M1511.8 1467.8L1508.8 1235.7L1252.7 1270.7Z" fill="#d6d6d6" stroke="#d6d6d6"></path><path d="M1438.8 1019.6L1660.9 1035.6L1491.8 846.4Z" fill="#e0e0e0" stroke="#e0e0e0"></path><path d="M1677.9 664.3L1492.8 615.3L1491.8 846.4Z" fill="#e5e5e5" stroke="#e5e5e5"></path><path d="M1491.8 846.4L1492.8 615.3L1286.7 672.3Z" fill="#d1d1d1" stroke="#d1d1d1"></path><path d="M1492.8 615.3L1305.7 423.2L1286.7 672.3Z" fill="#f5f5f5" stroke="#f5f5f5"></path><path d="M223.1 1043.6L390.2 1265.7L458.2 1070.6Z" fill="#efefef" stroke="#efefef"></path><path d="M458.2 1070.6L390.2 1265.7L594.3 1269.7Z" fill="#cccccc" stroke="#cccccc"></path><path d="M223.1 1043.6L458.2 1070.6L441.2 835.4Z" fill="#d1d1d1" stroke="#d1d1d1"></path><path d="M1508.8 1235.7L1660.9 1035.6L1438.8 1019.6Z" fill="#d6d6d6" stroke="#d6d6d6"></path><path d="M632.3 1460.8L829.4 1649.9L833.4 1469.8Z" fill="#d1d1d1" stroke="#d1d1d1"></path><path d="M833.4 1469.8L829.4 1649.9L1031.6 1441.8Z" fill="#d1d1d1" stroke="#d1d1d1"></path><path d="M605.3 1706.9L829.4 1649.9L632.3 1460.8Z" fill="#eaeaea" stroke="#eaeaea"></path><path d="M829.4 1649.9L1056.6 1662.9L1031.6 1441.8Z" fill="#e0e0e0" stroke="#e0e0e0"></path><path d="M1057.6 190.1L816.4 250.1L1021.6 396.2Z" fill="#d6d6d6" stroke="#d6d6d6"></path><path d="M1021.6 396.2L816.4 250.1L810.4 418.2Z" fill="#f5f5f5" stroke="#f5f5f5"></path><path d="M390.2 1265.7L445.2 1453.8L594.3 1269.7Z" fill="#d6d6d6" stroke="#d6d6d6"></path><path d="M1660.9 1035.6L1682.9 806.4L1491.8 846.4Z" fill="#d1d1d1" stroke="#d1d1d1"></path><path d="M1492.8 615.3L1448.8 388.2L1305.7 423.2Z" fill="#d1d1d1" stroke="#d1d1d1"></path><path d="M1655.9 413.2L1448.8 388.2L1492.8 615.3Z" fill="#efefef" stroke="#efefef"></path><path d="M1287.7 245.1L1057.6 190.1L1021.6 396.2Z" fill="#d1d1d1" stroke="#d1d1d1"></path><path d="M176.1 602.3L230.1 819.4L429.2 660.3Z" fill="#d6d6d6" stroke="#d6d6d6"></path><path d="M429.2 660.3L230.1 819.4L441.2 835.4Z" fill="#e0e0e0" stroke="#e0e0e0"></path><path d="M390.2 1265.7L249.1 1264.7L445.2 1453.8Z" fill="#e5e5e5" stroke="#e5e5e5"></path><path d="M425.2 432.2L622.3 615.3L644.3 431.2Z" fill="#f5f5f5" stroke="#f5f5f5"></path><path d="M230.1 819.4L223.1 1043.6L441.2 835.4Z" fill="#e5e5e5" stroke="#e5e5e5"></path><path d="M409.2 248.1L425.2 432.2L644.3 431.2Z" fill="#e0e0e0" stroke="#e0e0e0"></path><path d="M1486.8 1711.9L1511.8 1467.8L1276.7 1476.8Z" fill="#d1d1d1" stroke="#d1d1d1"></path><path d="M1276.7 1476.8L1511.8 1467.8L1252.7 1270.7Z" fill="#e0e0e0" stroke="#e0e0e0"></path><path d="M1508.8 1235.7L1662.9 1249.7L1660.9 1035.6Z" fill="#cccccc" stroke="#cccccc"></path><path d="M1511.8 1467.8L1662.9 1249.7L1508.8 1235.7Z" fill="#ffffff" stroke="#ffffff"></path><path d="M1660.9 1035.6L1900 877.4L1682.9 806.4Z" fill="#f5f5f5" stroke="#f5f5f5"></path><path d="M1287.7 245.1L1021.6 396.2L1305.7 423.2Z" fill="#eaeaea" stroke="#eaeaea"></path><path d="M1682.9 806.4L1677.9 664.3L1491.8 846.4Z" fill="#f5f5f5" stroke="#f5f5f5"></path><path d="M1448.8 388.2L1287.7 245.1L1305.7 423.2Z" fill="#cccccc" stroke="#cccccc"></path><path d="M223.1 1043.6L249.1 1264.7L390.2 1265.7Z" fill="#cccccc" stroke="#cccccc"></path><path d="M816.4 250.1L644.3 213.1L644.3 431.2Z" fill="#e0e0e0" stroke="#e0e0e0"></path><path d="M666.3 0L644.3 213.1L816.4 250.1Z" fill="#cccccc" stroke="#cccccc"></path><path d="M1056.6 1662.9L1287.7 1708.9L1276.7 1476.8Z" fill="#dbdbdb" stroke="#dbdbdb"></path><path d="M1233.7 1900L1287.7 1708.9L1056.6 1662.9Z" fill="#efefef" stroke="#efefef"></path><path d="M400.2 1684.9L605.3 1706.9L445.2 1453.8Z" fill="#efefef" stroke="#efefef"></path><path d="M445.2 1453.8L605.3 1706.9L632.3 1460.8Z" fill="#f5f5f5" stroke="#f5f5f5"></path><path d="M829.4 1649.9L1025.6 1900L1056.6 1662.9Z" fill="#f5f5f5" stroke="#f5f5f5"></path><path d="M425.2 432.2L176.1 602.3L429.2 660.3Z" fill="#efefef" stroke="#efefef"></path><path d="M0 840.4L0 1048.6L223.1 1043.6Z" fill="#fafafa" stroke="#fafafa"></path><path d="M242.1 390.2L176.1 602.3L425.2 432.2Z" fill="#e5e5e5" stroke="#e5e5e5"></path><path d="M1677.9 664.3L1655.9 413.2L1492.8 615.3Z" fill="#ffffff" stroke="#ffffff"></path><path d="M1448.8 388.2L1502.8 189.1L1287.7 245.1Z" fill="#cccccc" stroke="#cccccc"></path><path d="M644.3 213.1L409.2 248.1L644.3 431.2Z" fill="#f5f5f5" stroke="#f5f5f5"></path><path d="M1725.9 1670.9L1692.9 1482.8L1511.8 1467.8Z" fill="#fafafa" stroke="#fafafa"></path><path d="M1511.8 1467.8L1692.9 1482.8L1662.9 1249.7Z" fill="#e5e5e5" stroke="#e5e5e5"></path><path d="M1900 1044.6L1900 877.4L1660.9 1035.6Z" fill="#d6d6d6" stroke="#d6d6d6"></path><path d="M409.2 248.1L242.1 390.2L425.2 432.2Z" fill="#dbdbdb" stroke="#dbdbdb"></path><path d="M1445.8 1900L1486.8 1711.9L1287.7 1708.9Z" fill="#e5e5e5" stroke="#e5e5e5"></path><path d="M1287.7 1708.9L1486.8 1711.9L1276.7 1476.8Z" fill="#dbdbdb" stroke="#dbdbdb"></path><path d="M194.1 1489.8L400.2 1684.9L445.2 1453.8Z" fill="#ffffff" stroke="#ffffff"></path><path d="M1660.9 220.1L1502.8 189.1L1448.8 388.2Z" fill="#eaeaea" stroke="#eaeaea"></path><path d="M1297.7 0L1035.6 0L1057.6 190.1Z" fill="#e0e0e0" stroke="#e0e0e0"></path><path d="M249.1 1264.7L194.1 1489.8L445.2 1453.8Z" fill="#dbdbdb" stroke="#dbdbdb"></path><path d="M0 1281.7L194.1 1489.8L249.1 1264.7Z" fill="#f5f5f5" stroke="#f5f5f5"></path><path d="M0 1281.7L249.1 1264.7L223.1 1043.6Z" fill="#e5e5e5" stroke="#e5e5e5"></path><path d="M1682.9 806.4L1900 658.3L1677.9 664.3Z" fill="#e0e0e0" stroke="#e0e0e0"></path><path d="M1677.9 664.3L1900 433.2L1655.9 413.2Z" fill="#efefef" stroke="#efefef"></path><path d="M1900 1044.6L1660.9 1035.6L1662.9 1249.7Z" fill="#d6d6d6" stroke="#d6d6d6"></path><path d="M1900 1276.7L1900 1044.6L1662.9 1249.7Z" fill="#d1d1d1" stroke="#d1d1d1"></path><path d="M814.4 1900L829.4 1649.9L605.3 1706.9Z" fill="#e0e0e0" stroke="#e0e0e0"></path><path d="M814.4 1900L1025.6 1900L829.4 1649.9Z" fill="#dbdbdb" stroke="#dbdbdb"></path><path d="M1297.7 0L1057.6 190.1L1287.7 245.1Z" fill="#eaeaea" stroke="#eaeaea"></path><path d="M1057.6 190.1L845.4 0L816.4 250.1Z" fill="#dbdbdb" stroke="#dbdbdb"></path><path d="M644.3 213.1L423.2 0L409.2 248.1Z" fill="#d1d1d1" stroke="#d1d1d1"></path><path d="M665.3 1900L814.4 1900L605.3 1706.9Z" fill="#e5e5e5" stroke="#e5e5e5"></path><path d="M1035.6 0L845.4 0L1057.6 190.1Z" fill="#fafafa" stroke="#fafafa"></path><path d="M0 840.4L230.1 819.4L176.1 602.3Z" fill="#e0e0e0" stroke="#e0e0e0"></path><path d="M0 840.4L223.1 1043.6L230.1 819.4Z" fill="#eaeaea" stroke="#eaeaea"></path><path d="M0 609.3L0 840.4L176.1 602.3Z" fill="#d6d6d6" stroke="#d6d6d6"></path><path d="M1900 877.4L1900 658.3L1682.9 806.4Z" fill="#ffffff" stroke="#ffffff"></path><path d="M1655.9 413.2L1660.9 220.1L1448.8 388.2Z" fill="#f5f5f5" stroke="#f5f5f5"></path><path d="M1025.6 1900L1233.7 1900L1056.6 1662.9Z" fill="#d1d1d1" stroke="#d1d1d1"></path><path d="M1692.9 1482.8L1900 1276.7L1662.9 1249.7Z" fill="#f5f5f5" stroke="#f5f5f5"></path><path d="M1900 1499.8L1900 1276.7L1692.9 1482.8Z" fill="#dbdbdb" stroke="#dbdbdb"></path><path d="M452.2 1900L665.3 1900L605.3 1706.9Z" fill="#ffffff" stroke="#ffffff"></path><path d="M409.2 248.1L237.1 230.1L242.1 390.2Z" fill="#e5e5e5" stroke="#e5e5e5"></path><path d="M845.4 0L666.3 0L816.4 250.1Z" fill="#e0e0e0" stroke="#e0e0e0"></path><path d="M1502.8 189.1L1297.7 0L1287.7 245.1Z" fill="#e0e0e0" stroke="#e0e0e0"></path><path d="M1900 237.1L1660.9 220.1L1655.9 413.2Z" fill="#dbdbdb" stroke="#dbdbdb"></path><path d="M1502.8 189.1L1465.8 0L1297.7 0Z" fill="#e0e0e0" stroke="#e0e0e0"></path><path d="M0 1048.6L0 1281.7L223.1 1043.6Z" fill="#e5e5e5" stroke="#e5e5e5"></path><path d="M0 397.2L0 609.3L176.1 602.3Z" fill="#dbdbdb" stroke="#dbdbdb"></path><path d="M0 397.2L176.1 602.3L242.1 390.2Z" fill="#d6d6d6" stroke="#d6d6d6"></path><path d="M423.2 0L237.1 230.1L409.2 248.1Z" fill="#dbdbdb" stroke="#dbdbdb"></path><path d="M1721.9 1900L1725.9 1670.9L1486.8 1711.9Z" fill="#f5f5f5" stroke="#f5f5f5"></path><path d="M1486.8 1711.9L1725.9 1670.9L1511.8 1467.8Z" fill="#e5e5e5" stroke="#e5e5e5"></path><path d="M194.1 1489.8L221.1 1699.9L400.2 1684.9Z" fill="#d6d6d6" stroke="#d6d6d6"></path><path d="M400.2 1684.9L452.2 1900L605.3 1706.9Z" fill="#cccccc" stroke="#cccccc"></path><path d="M0 1502.8L221.1 1699.9L194.1 1489.8Z" fill="#eaeaea" stroke="#eaeaea"></path><path d="M1233.7 1900L1445.8 1900L1287.7 1708.9Z" fill="#efefef" stroke="#efefef"></path><path d="M1900 658.3L1900 433.2L1677.9 664.3Z" fill="#eaeaea" stroke="#eaeaea"></path><path d="M221.1 1699.9L452.2 1900L400.2 1684.9Z" fill="#dbdbdb" stroke="#dbdbdb"></path><path d="M1667.9 0L1502.8 189.1L1660.9 220.1Z" fill="#cccccc" stroke="#cccccc"></path><path d="M1667.9 0L1465.8 0L1502.8 189.1Z" fill="#d6d6d6" stroke="#d6d6d6"></path><path d="M1725.9 1670.9L1900 1499.8L1692.9 1482.8Z" fill="#fafafa" stroke="#fafafa"></path><path d="M666.3 0L423.2 0L644.3 213.1Z" fill="#fafafa" stroke="#fafafa"></path><path d="M0 1281.7L0 1502.8L194.1 1489.8Z" fill="#eaeaea" stroke="#eaeaea"></path><path d="M237.1 230.1L0 397.2L242.1 390.2Z" fill="#dbdbdb" stroke="#dbdbdb"></path><path d="M0 230.1L0 397.2L237.1 230.1Z" fill="#d1d1d1" stroke="#d1d1d1"></path><path d="M1900 433.2L1900 237.1L1655.9 413.2Z" fill="#ffffff" stroke="#ffffff"></path><path d="M1721.9 1900L1900 1675.9L1725.9 1670.9Z" fill="#e5e5e5" stroke="#e5e5e5"></path><path d="M1725.9 1670.9L1900 1675.9L1900 1499.8Z" fill="#e5e5e5" stroke="#e5e5e5"></path><path d="M1900 0L1667.9 0L1660.9 220.1Z" fill="#efefef" stroke="#efefef"></path><path d="M220.1 0L0 230.1L237.1 230.1Z" fill="#efefef" stroke="#efefef"></path><path d="M423.2 0L220.1 0L237.1 230.1Z" fill="#dbdbdb" stroke="#dbdbdb"></path><path d="M1445.8 1900L1721.9 1900L1486.8 1711.9Z" fill="#efefef" stroke="#efefef"></path><path d="M0 1721.9L189.1 1900L221.1 1699.9Z" fill="#d6d6d6" stroke="#d6d6d6"></path><path d="M221.1 1699.9L189.1 1900L452.2 1900Z" fill="#d1d1d1" stroke="#d1d1d1"></path><path d="M0 1502.8L0 1721.9L221.1 1699.9Z" fill="#d6d6d6" stroke="#d6d6d6"></path><path d="M1721.9 1900L1900 1900L1900 1675.9Z" fill="#d6d6d6" stroke="#d6d6d6"></path><path d="M1900 237.1L1900 0L1660.9 220.1Z" fill="#f5f5f5" stroke="#f5f5f5"></path><path d="M0 1721.9L0 1900L189.1 1900Z" fill="#e5e5e5" stroke="#e5e5e5"></path><path d="M220.1 0L0 0L0 230.1Z" fill="#e5e5e5" stroke="#e5e5e5"></path></g></svg>